HIERARCHY
ROOT Hips
{
	OFFSET 0.00000 0.00000 0.00000
	CHANNELS 6 Xposition Yposition Zposition Zrotation Yrotation Xrotation 
	JOINT LHipJoint
	{
		OFFSET 0 0 0
		CHANNELS 3 Zrotation Yrotation Xrotation
		JOINT LeftHip
		{
			OFFSET 1.38615 -1.80049 0.80104
			CHANNELS 3 Zrotation Yrotation Xrotation
			JOINT LeftKnee
			{
				OFFSET 2.50172 -6.87341 0.00000
				CHANNELS 3 Zrotation Yrotation Xrotation
				JOINT LeftAnkle
				{
					OFFSET 2.67523 -7.35014 0.00000
					CHANNELS 3 Zrotation Yrotation Xrotation
					JOINT LeftToe
					{
						OFFSET 0.17446 -0.47932 2.13155
						CHANNELS 3 Zrotation Yrotation Xrotation
						End Site
						{
							OFFSET 0.00000 -0.00000 1.10023
						}
					}
				}
			}
		}
	}
	JOINT RHipJoint
	{
		OFFSET 0 0 0
		CHANNELS 3 Zrotation Yrotation Xrotation
		JOINT RightHip
		{
			OFFSET -1.18047 -1.80049 0.80104
			CHANNELS 3 Zrotation Yrotation Xrotation
			JOINT RightKnee
			{
				OFFSET -2.59789 -7.13765 0.00000
				CHANNELS 3 Zrotation Yrotation Xrotation
				JOINT RightAnkle
				{
					OFFSET -2.62125 -7.20183 0.00000
					CHANNELS 3 Zrotation Yrotation Xrotation
					JOINT RightToe
					{
						OFFSET -0.31287 -0.85960 2.07814
						CHANNELS 3 Zrotation Yrotation Xrotation
						End Site
						{
							OFFSET -0.00000 -0.00000 1.11766
						}
					}
				}
			}
		}
	}
	JOINT lowerback
	{
		OFFSET 0 0 0
		CHANNELS 3 Zrotation Yrotation Xrotation
		JOINT Chest
		{
			OFFSET -0.01587 2.16157 -0.12309
			CHANNELS 3 Zrotation Yrotation Xrotation
			JOINT Chest2
			{
				OFFSET 0.04727 2.16674 -0.03569
				CHANNELS 3 Zrotation Yrotation Xrotation
				JOINT lowerneck
				{
					OFFSET 0 0 0
					CHANNELS 3 Zrotation Yrotation Xrotation
					JOINT Neck
					{
						OFFSET -0.08586 1.60335 0.32783
						CHANNELS 3 Zrotation Yrotation Xrotation
						JOINT Head
						{
							OFFSET 0.07583 1.65857 -0.31618
							CHANNELS 3 Zrotation Yrotation Xrotation
							End Site
							{
								OFFSET 0.03386 1.69434 -0.14584
							}
						}
					}
				}
				JOINT LeftCollar
				{
					OFFSET 0 0 0
					CHANNELS 3 Zrotation Yrotation Xrotation
					JOINT LeftShoulder
					{
						OFFSET 3.17393 1.01901 -0.52897
CHANNELS 3 Zrotation Xrotation Yrotation
						JOINT LeftElbow
						{
OFFSET 0 -5.252870 -0.000000
CHANNELS 3 Zrotation Xrotation Yrotation
							JOINT LeftWrist
							{
OFFSET 0 -3.510140 0.000000
CHANNELS 3 Zrotation Xrotation Yrotation
								JOINT lhand
								{
									OFFSET 0 0 0
CHANNELS 3 Zrotation Xrotation Yrotation
									JOINT LFingers
									{
OFFSET 0 -0.706180 -0.000000
CHANNELS 3 Zrotation Xrotation Yrotation
										End Site
										{
OFFSET 0 -0.569340 -0.000000
										}
									}
								}
								JOINT LThumb
								{
OFFSET 0 0.000000 0.000000
CHANNELS 3 Zrotation Xrotation Yrotation
									End Site
									{
OFFSET 0 -0.578030 0.578030
									}
								}
							}
						}
					}
				}
				JOINT RightCollar
				{
					OFFSET 0 0 0
					CHANNELS 3 Zrotation Yrotation Xrotation
					JOINT RightShoulder
					{
						OFFSET -2.99471 1.26495 -0.61125
CHANNELS 3 Zrotation Xrotation Yrotation
						JOINT RightElbow
						{
OFFSET 0 -5.287210 -0.000000
CHANNELS 3 Zrotation Xrotation Yrotation
							JOINT RightWrist
							{
OFFSET 0 -3.505440 0.000000
CHANNELS 3 Zrotation Xrotation Yrotation
								JOINT rhand
								{
									OFFSET 0 0 0
CHANNELS 3 Zrotation Xrotation Yrotation
									JOINT RFingers
									{
OFFSET 0 -0.885000 -0.000000
CHANNELS 3 Zrotation Xrotation Yrotation
										End Site
										{
OFFSET 0 -0.713510 -0.000000
										}
									}
								}
								JOINT RThumb
								{
OFFSET 0 0.000000 0.000000
CHANNELS 3 Zrotation Xrotation Yrotation
									End Site
									{
OFFSET 0 -0.724400 0.724400
									}
								}
							}
						}
					}
				}
			}
		}
	}
}
MOTION
Frames: 6
Frame Time: 0.008333333333333333
-7.657642 18.065103 6.690738 -4.474932 15.764648 3.229007 0.000000 0.000000 0.000000 -9.368022 -12.270081 -26.316612 2.207839 9.274531 26.666783 0.139908 -4.565090 -6.913182 0.401974 -4.040431 -11.194262 0.000000 0.000000 0.000000 28.889014 -2.823369 -3.917565 -1.323878 -7.286730 20.567738 -1.533311 -2.193428 -24.274007 -0.311585 3.588284 -9.921167 2.459739 5.092622 1.198490 3.283014 6.812663 1.135014 1.936119 3.415707 0.382347 0.120717 12.982622 -17.859324 -5.236897 19.276697 19.180833 0.822404 8.449945 9.528695 0.000000 0.000000 0.000000 -3.504447 -2.099944 -8.017806 13.437673 -21.925105 2.614466 3.187146 15.462834 -38.348986 0.000000 0.000000 0.000000 -7.125000 0.000000 0.000000 -39.529424 64.051155 19.719590 0.000000 0.000000 0.000000 -10.331675 -9.350277 8.166897 -17.679574 -27.744424 -4.399328 -21.417734 -7.721925 -10.827944 0.000000 0.000000 0.000000 7.125000 0.000000 0.000000 3.988921 18.386179 2.533763
-7.648178 18.065614 6.738964 -4.356370 15.621155 3.316510 0.000000 0.000000 0.000000 -9.595361 -12.075000 -26.314847 2.048991 8.965642 25.689118 0.129502 -4.591768 -6.703792 0.472246 -4.403951 -12.216415 0.000000 0.000000 0.000000 28.762941 -2.848685 -3.751810 -1.312735 -7.257289 20.479915 -1.534847 -2.176466 -24.278404 -0.318357 3.627058 -10.029665 2.356115 5.125138 1.202039 3.224749 6.856709 1.098354 1.930078 3.436910 0.337016 0.116955 12.991372 -17.857620 -5.347816 19.305396 19.077118 0.788074 8.455798 9.505427 0.000000 0.000000 0.000000 -3.525332 -2.066377 -7.724717 13.405503 -21.878445 2.602466 3.094068 15.568968 -38.385598 0.000000 0.000000 0.000000 -7.125000 0.000000 0.000000 -39.670732 64.053602 19.803169 0.000000 0.000000 0.000000 -10.348373 -9.449917 8.486648 -17.802578 -27.903658 -4.456479 -21.529887 -7.902540 -10.696543 0.000000 0.000000 0.000000 7.125000 0.000000 0.000000 3.906156 18.516793 2.469206
-7.637297 18.070023 6.788641 -4.121750 15.506726 3.424184 0.000000 0.000000 0.000000 -9.964502 -11.904600 -26.271678 1.907252 8.657236 24.737196 0.118869 -4.642547 -6.483254 0.550476 -4.730385 -13.145259 0.000000 0.000000 0.000000 28.495002 -2.963541 -3.600683 -1.303525 -7.232682 20.406592 -1.537478 -2.089844 -24.261407 -0.323229 3.654296 -10.105975 2.134759 5.156430 1.150264 3.154982 6.895149 1.084024 1.983097 3.455116 0.332927 0.215526 13.005987 -17.770499 -5.553526 19.344760 19.020863 0.708990 8.463230 9.505711 0.000000 0.000000 0.000000 -3.558686 -2.044828 -7.489528 13.338438 -21.780941 2.577610 2.972313 15.599514 -38.224764 0.000000 0.000000 0.000000 -7.125000 0.000000 0.000000 -39.575220 63.898137 19.606882 0.000000 0.000000 0.000000 -10.369389 -9.603462 8.604314 -17.876897 -27.999064 -4.491398 -21.593644 -8.009467 -10.691671 0.000000 0.000000 0.000000 7.125000 0.000000 0.000000 3.860960 18.516722 2.440509
-7.626416 18.074433 6.838317 -3.887130 15.392296 3.531857 0.000000 0.000000 0.000000 -10.333643 -11.734200 -26.228509 1.765513 8.348831 23.785275 0.108237 -4.693325 -6.262715 0.628706 -5.056819 -14.074103 0.000000 0.000000 0.000000 28.227063 -3.078397 -3.449556 -1.294316 -7.208075 20.333269 -1.540110 -2.003222 -24.244409 -0.328101 3.681534 -10.182286 1.913403 5.187723 1.098490 3.085215 6.933588 1.069694 2.036116 3.473322 0.328837 0.314096 13.020602 -17.683379 -5.759236 19.384124 18.964608 0.629907 8.470662 9.505996 0.000000 0.000000 0.000000 -3.592041 -2.023279 -7.254339 13.271373 -21.683438 2.552754 2.850558 15.630059 -38.063929 0.000000 0.000000 0.000000 -7.125000 0.000000 0.000000 -39.479707 63.742672 19.410595 0.000000 0.000000 0.000000 -10.390404 -9.757007 8.721980 -17.951216 -28.094469 -4.526317 -21.657402 -8.116393 -10.686799 0.000000 0.000000 0.000000 7.125000 0.000000 0.000000 3.815765 18.516651 2.411813
-7.615014 18.078121 6.886891 -3.678103 15.291279 3.647484 0.000000 0.000000 0.000000 -10.657939 -11.602024 -26.199784 1.629874 8.043671 22.849400 0.097435 -4.759059 -6.040263 0.687514 -5.301096 -14.769377 0.000000 0.000000 0.000000 27.980249 -3.215140 -3.326736 -1.285066 -7.183288 20.259445 -1.544494 -1.877063 -24.225208 -0.330729 3.696242 -10.223507 1.735639 5.210430 1.046505 3.016209 6.961130 1.049033 2.066066 3.486250 0.323616 0.395377 13.036178 -17.591461 -5.935427 19.422016 18.910958 0.561761 8.479806 9.501102 0.000000 0.000000 0.000000 -3.618634 -1.994969 -7.051784 13.207173 -21.590001 2.529030 2.784155 15.643846 -37.905969 0.000000 0.000000 0.000000 -7.125000 0.000000 0.000000 -39.335113 63.604075 19.202598 0.000000 0.000000 0.000000 -10.410729 -9.908979 8.859348 -18.031585 -28.197407 -4.564211 -21.691831 -8.200001 -10.679183 0.000000 0.000000 0.000000 7.125000 0.000000 0.000000 3.791223 18.521919 2.395768
-7.602284 18.079970 6.932656 -3.534336 15.224463 3.783391 0.000000 0.000000 0.000000 -10.867880 -11.567318 -26.207891 1.509790 7.746786 21.954444 0.086198 -4.862927 -5.812933 0.696795 -5.335873 -14.869049 0.000000 0.000000 0.000000 27.787305 -3.407694 -3.276100 -1.275714 -7.158041 20.184344 -1.553348 -1.650089 -24.200388 -0.327635 3.678996 -10.175253 1.669036 5.211248 0.993984 2.949144 6.960881 1.012229 2.037192 3.485716 0.315509 0.432572 13.054207 -17.487308 -6.036345 19.456153 18.863949 0.521508 8.493319 9.483002 0.000000 0.000000 0.000000 -3.627986 -1.949417 -6.932447 13.150278 -21.506935 2.508192 2.858901 15.614901 -37.755340 0.000000 0.000000 0.000000 -7.125000 0.000000 0.000000 -39.065361 63.508492 18.964742 0.000000 0.000000 0.000000 -10.429291 -10.056942 9.046959 -18.127382 -28.319553 -4.609692 -21.651471 -8.224146 -10.664568 0.000000 0.000000 0.000000 7.125000 0.000000 0.000000 3.819351 18.540801 2.411983
